/* XPM */
static char *result[] = {
/* columns rows colors chars-per-pixel */
"28 32 10 1 ",
"  c #00000C",
". c #170D11",
"X c #301100",
"o c #281013",
"O c #021D25",
"+ c #283030",
"@ c #412322",
"# c #5C342C",
"$ c #423D3D",
"% c #6E6868",
/* pixels */
"OXOOOOOOOOOOOOOOOOOOOOOOOOXO",
"$O$%$%O$%$%%$$+$$$++O$+%%OO$",
"+O$$+$O+$$++++++++++O++$$OO+",
"OO++++OOOOOOOOOOOOOOO++++OOO",
"+$OOOO@@##@@@@#@@@o@oOOOOO+$",
"$+O@#############@@#####@O+$",
"$+O#############@########O+$",
"%$Oooooo@oo@@ooooooo@ooooO++",
"%$O@@o@@@@o@@@@o@@@@o@@@@O+$",
"$+O@@@o@@@o@@@@o@@@o@@@@@O+$",
"%$O oo.oooo.ooo.ooo.oooo O+$",
"$+O  oo.ooo.ooo.oo.oooo  O+$",
"$+O   .. .. .. .. ...    O++",
"++O    .. . .. . ..      O++",
"++O                      O+$",
"$+O                      O+$",
"$+O                      O+$",
"$+O                      O+$",
"$+O                      O+$",
"$+O                      O+$",
"+$O                      O+$",
"+$O                      O++",
"$+O                      O+$",
"+OO                      O+$",
"+OO                      O+$",
"$+O                      O++",
"$+O                      O++",
"+OO                      O++",
"OOOOOOOOOOOOOOOOOOOOOOOOOOOO",
"$O%$%$$++++$++$$$$$+$+++++O+",
"+OO+$++OOOOOOO+++++++OOO$OO+",
"OOOOOOOOOOOOOOOOOOOOOOOOOOOO"
};
