/* XPM */
static char *f11fe7c8c1144396f7e10eed83253b19OZw7cytNTmoJ06lK[] = {
/* columns rows colors chars-per-pixel */
"28 32 12 1 ",
"  c None",
". c #080000",
"X c #B97371",
"o c #67979B",
"O c #67979C",
"+ c #68989C",
"@ c #CF9C9B",
"# c #9CC8CC",
"$ c #9CC8CD",
"% c #9DC9CD",
"& c #E3C6C5",
"* c white",
/* pixels */
"        ............        ",
"      ....@@@@@@@@....      ",
"     ...@&&&&&&&&&&@...     ",
"    ..@&&&&&&&&&&&&&&@..    ",
"   ..@&&&&&&&&&&&&&&&&@..   ",
"  ..@&&&&&&&&&&&&&&&&&&@..  ",
"  ..&&&&&&&&&&&&&&&&&&&&..  ",
" ..@&&&&&&&&&&&&&&&&&&&&@.. ",
" ..&&&&&&&&&&&&&&&&&&&&&&.. ",
"..@&&&&&&&&&&&&&&&&&&&&&&@..",
"..@&@....@&&&&&&&&@....@&@..",
"..@&.**...&&&&&&&&.**...&@..",
"..@@.**...&&&&&&&&.**...@@..",
"..X@......&&....&&......@X..",
" ..@......&......&......@.. ",
" ..X@....@&.****.&@....@X.. ",
"  ..@$##@&&......&&@###@..  ",
"  ..X%%#&&&&&&&&&&&&###X..  ",
"   ..+##&&&&&&&&&&&&##O..   ",
"    ..O#@&&&&&&&&&&@#o..    ",
"     ...O@&&&&&&&&@O...     ",
"      ....X@@@@@@X....      ",
"       ..............       ",
"      ..@&........&@..      ",
"     ..@&&@@@@@@@@&&@..     ",
"     ..@&.@&&&&&&@.&@..     ",
"     ..@&.&&&&&&&&.&@..     ",
"      ....&&@..@&&....      ",
"       ...&&&..@&&...       ",
"        ...&&..@&...        ",
"         ..........         ",
"          ...  ...          "
};
