/* XPM */
static char *dfc0fe009f3241a0e6a33858356b1f3cp5HbeJpas4uDKm8Z[] = {
/* columns rows colors chars-per-pixel */
"28 32 9 1 ",
"  c None",
". c #080000",
"X c #B97371",
"o c #67979C",
"O c #CF9C9B",
"+ c #9CC8CC",
"@ c #9CC8CD",
"# c #E3C6C5",
"$ c white",
/* pixels */
"          ........          ",
"        ............        ",
"      ....OOOOOOOO....      ",
"     ...O##########O...     ",
"    ..O##############O..    ",
"   ..O################O..   ",
"  ..O##################O..  ",
"  ..####################..  ",
" ..O####################O.. ",
" ..######################.. ",
"..O#####O....O###########O..",
"..O#####...$$.###########O..",
"..O#####...$$.###########O..",
"....O###......###########O..",
".....O##......##########OX..",
"..$$$.##O....O##########O.. ",
"......###+++@##########OX.. ",
" ..OOO###@@@+##########O..  ",
" ..XO####@@++#########OX..  ",
"  ..XO###@@@+########OX..   ",
"   ..XO##@@@@######OOX..    ",
"    ...XOo@@@#####OX...     ",
"     .....oooOOOOX....      ",
"       ..............       ",
"        ..........#O..      ",
"        ..OOOOOOO###O..     ",
"       ...######O.##O..     ",
"       ..OO######O.#O..     ",
"       ..OOOX.###O....      ",
"       ..OOOX.###O...       ",
"        ..OOX.OOO...        ",
"         ..........         "
};
