/* XPM */
static char *_52c9ce6ddb74005c2cd277eecd8dc18CqscFaGAHIYRWnfw[] = {
/* columns rows colors chars-per-pixel */
"28 32 9 1 ",
"  c None",
". c #080000",
"X c #B97371",
"o c #67979C",
"O c #CF9C9B",
"+ c #9CC8CC",
"@ c #9CC8CD",
"# c #E3C6C5",
"$ c white",
/* pixels */
"          ........          ",
"        ............        ",
"      ....OOOOOOOO....      ",
"     ...O##########O...     ",
"    ..O##############O..    ",
"   ..O################O..   ",
"  ..O##################O..  ",
"  ..####################..  ",
" ..O####################O.. ",
" ..######################.. ",
"..O###########O....O#####O..",
"..O###########.$$...#####O..",
"..O###########.$$...#####O..",
"..O###########......###O....",
"..XO##########......##O.....",
" ..O##########O....O##.$$$..",
" ..XO##########++++###......",
"  ..O##########++++###OOO.. ",
"  ..XO#########++@+####OX.. ",
"   ..XO########+@@+###OX..  ",
"    ..XOO######@@@@##OX..   ",
"     ...XO#####@@@oOX...    ",
"      ....XOOOOooo.....     ",
"       ..............       ",
"      ..O#..........        ",
"     ..O###OOOOOOO..        ",
"     ..O##.O######...       ",
"     ..O#.O######OO..       ",
"      ....O###.XOOO..       ",
"       ...O###.XOOO..       ",
"        ...OOO.XOO..        ",
"         ..........         "
};
