/* XPM */
static char *_ad545d472dd4a68cb733f6ef2913f81wDXTyLtgdK0WIPce[] = {
/* columns rows colors chars-per-pixel */
"28 32 8 1 ",
"  c None",
". c gray12",
"X c #222222",
"o c #282A2A",
"O c #292B2B",
"+ c #373939",
"@ c gray28",
"# c #535353",
/* pixels */
"                            ",
"                            ",
"           XXXXXX           ",
"        XXX@@@@@@XXX        ",
"      XX@@@######@@@XX      ",
"     X@@####@@@@####@@X     ",
"    X@###@@++++++@@###@X    ",
"   X@##@++++++++++++@##@X   ",
"   X@##+++OOoOOoOO+++##@X   ",
"   X+##++oOO..X.OOO++##+X   ",
"   X+##@ooX.....X.oO@##+X   ",
"  XX+@###@+......+@###@+XX  ",
" Xoo++@##############@++ooX ",
" Xo+@@++@@########@@++@@+oX ",
"Xo+@@@@@+++@@@@@@++++@@@@+oX",
"Xo+@@@@@@@@++++++@@@+@@@@+oX",
"Xo+@@@@@@@@@@@@@+@@@+@@@@+oX",
"Xo++@@@@@@@@@@@@@+@@+@@@++oX",
"Xo++@@@@@@@@@@@@@@++@@@@++oX",
" Xo++@@@@@@@@@@@@@@+@@@++oX ",
" Xo+++@@@@@@@@@@@@@+@@+++oX ",
"  Xo++++@@@@@@@@@@@+++++oX  ",
"  Xooo+++++@@@@@@+++++oooX  ",
"   Xoooo++++++++++++ooooX   ",
"    Xooooo++++++++oooooX    ",
"     XooooooooooooooooX     ",
"      XXooooooooooooXX      ",
"        XXXooooooXXX        ",
"           XXXXXX           ",
"                            ",
"                            ",
"                            "
};
